<?xml version="1.0" encoding="UTF-8" standalone="no"?>
<svg
   width="22"
   height="22"
   version="1.1"
   viewBox="0 0 22 22"
   id="svg7813"
   sodipodi:docname="compass.svg"
   inkscape:version="1.2.2 (b0a8486541, 2022-12-01)"
   xmlns:inkscape="http://www.inkscape.org/namespaces/inkscape"
   xmlns:sodipodi="http://sodipodi.sourceforge.net/DTD/sodipodi-0.dtd"
   xmlns="http://www.w3.org/2000/svg"
   xmlns:svg="http://www.w3.org/2000/svg">
  <sodipodi:namedview
     id="namedview7815"
     pagecolor="#ffffff"
     bordercolor="#666666"
     borderopacity="1.0"
     inkscape:showpageshadow="2"
     inkscape:pageopacity="0.0"
     inkscape:pagecheckerboard="0"
     inkscape:deskcolor="#d1d1d1"
     showgrid="true"
     inkscape:zoom="32.000001"
     inkscape:cx="20.312499"
     inkscape:cy="-19.140624"
     inkscape:window-width="3840"
     inkscape:window-height="2028"
     inkscape:window-x="0"
     inkscape:window-y="64"
     inkscape:window-maximized="1"
     inkscape:current-layer="svg7813">
    <inkscape:grid
       type="xygrid"
       id="grid7934"
       spacingy="0.5"
       spacingx="0.5"
       empspacing="2"
       color="#c600e5"
       opacity="0.14901961" />
  </sodipodi:namedview>
  <defs
     id="defs7792">
    <style
       id="current-color-scheme"
       type="text/css">.ColorScheme-Text { color:#363636; } .ColorScheme-Highlight { color:#5294e2; }</style>
  </defs>
  <g
     id="22-22-compass">
    <path
       id="rect238"
       d="M 3.767578,3 C 2.234118,3 1,4.2341169 1,5.7675781 V 16.232422 C 1,17.765882 2.234118,19 3.767578,19 H 18.232422 C 19.765882,19 21,17.765882 21,16.232422 V 8.75 8.0097656 7.2675781 C 21,5.7341185 19.76588,4.5 18.232422,4.5 H 17 16 11.113281 C 10.480483,4.5 9.984387,4.486321 9.492188,4.0820312 L 9,3.6777344 C 8.376001,3.1679654 8.038082,3 7.115234,3 H 6 Z m -0.0039,1.5 H 6 6.648438 c 0.624018,0 0.993162,0.1503883 1.49414,0.5546875 L 8.636719,5.46875 c 0.615198,0.4921891 1.088819,0.5410156 2.011719,0.5410156 H 17 V 6 h 1.236328 C 18.936393,6 19.5,6.5636057 19.5,7.2636719 V 8 H 2.5 V 5.7636719 C 2.5,5.063605 3.063606,4.5 3.763672,4.5 Z m -1.263672,5 h 17 v 6.736328 C 19.5,16.936394 18.936394,17.5 18.236328,17.5 H 3.763672 C 3.063606,17.5 2.5,16.936394 2.5,16.236328 Z"
       class="ColorScheme-Text"
       fill="currentColor" />
    <rect
       width="22"
       height="22"
       rx="0"
       ry="0"
       opacity="0"
       stroke-width="2"
       style="paint-order:fill markers stroke"
       id="rect7799"
       x="0"
       y="0" />
  </g>
  <g
     id="compass">
    <rect
       x="-8"
       y="-36"
       width="32"
       height="32"
       fill="none"
       stroke-linecap="round"
       stroke-linejoin="round"
       stroke-miterlimit="2"
       stroke-width="4.2666"
       id="rect7808" />
    <path
       id="path376"
       d="m -0.732428,-29.999966 c -1.53346,0 -2.767578,1.234117 -2.767578,2.767578 v 13.46481 c 0,1.53346 1.234118,2.767578 2.767578,2.767578 h 17.464844 c 1.53346,0 2.767578,-1.234118 2.767578,-2.767578 v -11.96481 c 0,-1.533459 -1.23412,-2.767578 -2.767578,-2.767578 H 8.113281 c -0.632798,0 -1.128894,-0.01368 -1.621093,-0.417969 L 6,-29.322232 C 5.376001,-29.832001 5.038082,-29.999966 4.115234,-29.999966 H 3 Z m -0.0039,1.5 H 3 3.648438 c 0.624018,0 0.993162,0.150388 1.49414,0.554688 l 0.494141,0.414062 c 0.615198,0.492189 1.088819,0.541016 2.011719,0.541016 L 16.736322,-27 c 0.700065,0 1.263672,0.563606 1.263672,1.263672 V -24.5 h -20 v -2.736328 c 0,-0.700067 0.563606,-1.263672 1.263672,-1.263672 z m -1.263672,5.5 h 20 v 9.236294 C 17.999994,-13.063606 17.436388,-12.5 16.736322,-12.5 H -0.736334 c -0.700066,0 -1.263673,-0.563606 -1.263672,-1.263672 z"
       class="ColorScheme-Text"
       fill="currentColor"
       sodipodi:nodetypes="sssssssssccscsccsccccsccscccccsscc" />
  </g>
</svg>
